<svg xmlns="http://www.w3.org/2000/svg" viewBox="0 0 48 48" class="icon icon-gift-wrap" fill="none">
  <path d="M13 14c-2.5-1-3.7-3.6-2.7-5.6 1-2 4-2.4 6.5-.9 2.6 1.6 4.7 4.6 6.2 7.5-3.6.4-7.5-.1-10-1Z" fill="currentColor"/>
  <path d="M35 14c2.5-1 3.7-3.6 2.7-5.6-1-2-4-2.4-6.5-.9-2.6 1.6-4.7 4.6-6.2 7.5 3.6.4 7.5-.1 10-1Z" fill="currentColor"/>
  <rect x="7" y="13" width="34" height="9" rx="1" fill="currentColor"/>
  <rect x="9" y="22" width="30" height="20" fill="currentColor"/>
  <rect x="21" y="13" width="6" height="29" fill="var(--icon-ribbon-color, #fff)"/>
</svg>
